# xmcd
# 
# Track frame offsets:
#   150
#   23175
#   43350
#   66600
#   85350
#   104775
#   122850
#   142350
#   155925
#   179250
#   199425
#   220950
#   241950
#   258750
#   277650
#   299775
# 
# Disc length: 4243 seconds
# 
# Revision: 3
# Processed by: cddbd v1.5.2PL0 Copyright (c) Steve Scherf et al.
# Submitted via: VOLTOCDX V1.0.24 
# 
DISCID=14109110
DTITLE=Various Artist - Sweet Georgia Brown- 21st Century Tool Box Disc 12
DYEAR=2010
DGENRE=Karaoke
TTITLE0=Aerosmith - I Don't Want To Miss A Thing - Various
TTITLE1=Crow, Sheryl - My Favorite Mistake - Various
TTITLE2=Apple, Fiona - Across The Universe - Various
TTITLE3=McLachlan, Sara - Adia - Various
TTITLE4=Brooks, Meredith - Bitch - Various
TTITLE5=Cher - Believe - Various
TTITLE6=Morissette, Alanis - Thank U - Various
TTITLE7=Marcy Playground - Sex And Candy - Various
TTITLE8=Dion, Celine - My Heart Will Go On - Various
TTITLE9=Rimes, LeAnn - How Do I Live - Various
TTITLE10=Carey, Mariah And Houston, Whitney - When You Believe - Various
TTITLE11=Evans, Faith - Love Like This - Various
TTITLE12=Chumbawumba - TubThumpin' - Various
TTITLE13=Cole, Paula - Where Have All The Cowboys Gone - Various
TTITLE14=Morissette, Alanis - Forgivin' - Various
TTITLE15=McLachlan, Sara - Sweet Surrender - Various
EXTD=
EXTT0=
EXTT1=
EXTT2=
EXTT3=
EXTT4=
EXTT5=
EXTT6=
EXTT7=
EXTT8=
EXTT9=
EXTT10=
EXTT11=
EXTT12=
EXTT13=
EXTT14=
EXTT15=
PLAYORDER=
